HIERARCHY
ROOT Hips
{
	OFFSET 0.00000 0.00000 0.00000
	CHANNELS 6 Xposition Yposition Zposition Zrotation Yrotation Xrotation 
	JOINT LHipJoint
	{
		OFFSET 0 0 0
		CHANNELS 3 Zrotation Yrotation Xrotation
		JOINT LeftUpLeg
		{
			OFFSET 1.41496 -1.84582 0.78394
			CHANNELS 3 Zrotation Yrotation Xrotation
			JOINT LeftLeg
			{
				OFFSET 2.58040 -7.08960 0.00000
				CHANNELS 3 Zrotation Yrotation Xrotation
				JOINT LeftFoot
				{
					OFFSET 2.64719 -7.27309 0.00000
					CHANNELS 3 Zrotation Yrotation Xrotation
					JOINT LeftToeBase
					{
						OFFSET 0.20718 -0.56921 2.20259
						CHANNELS 3 Zrotation Yrotation Xrotation
						End Site
						{
							OFFSET 0.00000 -0.00000 1.14243
						}
					}
				}
			}
		}
	}
	JOINT RHipJoint
	{
		OFFSET 0 0 0
		CHANNELS 3 Zrotation Yrotation Xrotation
		JOINT RightUpLeg
		{
			OFFSET -1.40551 -1.84582 0.78394
			CHANNELS 3 Zrotation Yrotation Xrotation
			JOINT RightLeg
			{
				OFFSET -2.56572 -7.04926 0.00000
				CHANNELS 3 Zrotation Yrotation Xrotation
				JOINT RightFoot
				{
					OFFSET -2.57974 -7.08778 0.00000
					CHANNELS 3 Zrotation Yrotation Xrotation
					JOINT RightToeBase
					{
						OFFSET -0.26704 -0.73369 2.20815
						CHANNELS 3 Zrotation Yrotation Xrotation
						End Site
						{
							OFFSET -0.00000 -0.00000 1.16246
						}
					}
				}
			}
		}
	}
	JOINT LowerBack
	{
		OFFSET 0 0 0
		CHANNELS 3 Zrotation Yrotation Xrotation
		JOINT Spine
		{
			OFFSET -0.04690 2.05196 -0.07017
			CHANNELS 3 Zrotation Yrotation Xrotation
			JOINT Spine1
			{
				OFFSET 0.04085 2.05260 0.00800
				CHANNELS 3 Zrotation Yrotation Xrotation
				JOINT Neck
				{
					OFFSET 0 0 0
					CHANNELS 3 Zrotation Yrotation Xrotation
					JOINT Neck1
					{
						OFFSET -0.03582 1.80995 0.19301
						CHANNELS 3 Zrotation Yrotation Xrotation
						JOINT Head
						{
							OFFSET 0.00952 1.80195 -0.36389
							CHANNELS 3 Zrotation Yrotation Xrotation
							End Site
							{
								OFFSET 0.00392 1.85062 -0.14494
							}
						}
					}
				}
				JOINT LeftShoulder
				{
					OFFSET 0 0 0
					CHANNELS 3 Zrotation Yrotation Xrotation
					JOINT LeftArm
					{
						OFFSET 3.55224 1.39726 -0.13667
						CHANNELS 3 Zrotation Yrotation Xrotation
						JOINT LeftForeArm
						{
							OFFSET 5.14507 -0.00000 -0.00000
							CHANNELS 3 Zrotation Yrotation Xrotation
							JOINT LeftHand
							{
								OFFSET 3.50646 -0.00000 0.00000
								CHANNELS 3 Zrotation Yrotation Xrotation
								JOINT LeftFingerBase
								{
									OFFSET 0 0 0
									CHANNELS 3 Zrotation Yrotation Xrotation
									JOINT LeftHandIndex1
									{
										OFFSET 0.62997 -0.00000 0.00000
										CHANNELS 3 Zrotation Yrotation Xrotation
										End Site
										{
											OFFSET 0.50790 -0.00000 0.00000
										}
									}
								}
								JOINT LThumb
								{
									OFFSET 0 0 0
									CHANNELS 3 Zrotation Yrotation Xrotation
									End Site
									{
										OFFSET 0.51565 -0.00000 0.51565
									}
								}
							}
						}
					}
				}
				JOINT RightShoulder
				{
					OFFSET 0 0 0
					CHANNELS 3 Zrotation Yrotation Xrotation
					JOINT RightArm
					{
						OFFSET -3.06467 1.61290 -0.28813
						CHANNELS 3 Zrotation Yrotation Xrotation
						JOINT RightForeArm
						{
							OFFSET -5.23200 -0.00000 -0.00000
							CHANNELS 3 Zrotation Yrotation Xrotation
							JOINT RightHand
							{
								OFFSET -3.65641 -0.00000 0.00000
								CHANNELS 3 Zrotation Yrotation Xrotation
								JOINT RightFingerBase
								{
									OFFSET 0 0 0
									CHANNELS 3 Zrotation Yrotation Xrotation
									JOINT RightHandIndex1
									{
										OFFSET -0.65681 -0.00000 0.00000
										CHANNELS 3 Zrotation Yrotation Xrotation
										End Site
										{
											OFFSET -0.52953 -0.00000 0.00000
										}
									}
								}
								JOINT RThumb
								{
									OFFSET 0 0 0
									CHANNELS 3 Zrotation Yrotation Xrotation
									End Site
									{
										OFFSET -0.53762 -0.00000 0.53762
									}
								}
							}
						}
					}
				}
			}
		}
	}
}
MOTION
Frames: 15
Frame Time: .0083333
5.1856 16.2497 6.6882 21.4803 -34.7664 1.0673 0.0000 0.0000 0.0000 -25.7259 -8.0228 9.7941 3.8972 12.0224 35.8111 1.1210 -3.9410 21.7819 0.1872 -2.7863 -7.6842 0.0000 0.0000 0.0000 22.1749 5.6371 -58.8080 -3.7738 -11.8532 35.2146 0.0002 3.8416 -2.6809 -1.5432 7.8416 -22.2339 -9.8644 -2.6821 12.5555 -4.3451 -5.4020 -0.2666 1.8669 -2.3900 -6.8805 -4.9847 -2.5100 -19.1018 3.9248 -2.6431 8.6927 1.7808 -1.1472 5.8350 -0.0000 0.0000 0.0000 -82.0774 3.7635 42.9662 148.4063 -42.2209 -107.5331 -0.0000 0.0000 -16.8237 16.5543 -10.2493 -3.0275 -7.1250 0.0000 -0.0000 -7.4234 19.3444 4.5837 -0.0000 0.0000 0.0000 88.1260 -49.0193 29.8676 -96.4828 59.8406 -65.6113 0.0000 -0.0000 -20.1169 -30.1000 10.9618 -6.2902 7.1250 -0.0000 -0.0000 -2.0967 -17.3658 -1.3762
4.9315 16.2017 7.2009 22.2915 -34.7143 0.2449 0.0000 0.0000 0.0000 -26.3524 -7.4205 9.2098 4.5677 12.8798 38.9201 1.0912 -3.1621 21.1076 0.1334 -2.3545 -6.4864 0.0000 0.0000 0.0000 21.4016 5.3190 -57.9678 -3.7032 -11.7546 34.8693 0.0207 3.8720 -1.6927 -0.9119 6.0848 -17.0306 -10.0782 -2.7039 12.3082 -4.4674 -5.4278 -0.1514 1.8385 -2.4158 -6.6077 -5.0856 -2.5063 -19.0269 3.6950 -2.5830 8.5903 1.7298 -1.1409 5.7852 0.0000 0.0000 0.0000 -82.3807 4.6432 44.2368 146.8733 -43.4272 -106.4909 -0.0000 0.0000 -15.6324 16.7440 -10.3823 -3.1034 -7.1250 0.0000 -0.0000 -7.2879 19.1952 4.5231 0.0000 0.0000 0.0000 88.6861 -48.5762 29.4077 -96.9254 59.8180 -65.9939 0.0000 -0.0000 -20.0270 -30.2854 10.9133 -6.3094 7.1250 -0.0000 -0.0000 -2.2303 -17.3990 -1.4625
4.6761 16.1493 7.7064 22.9242 -34.5959 -0.5209 0.0000 0.0000 0.0000 -26.6435 -6.7509 8.2498 5.4116 13.8329 42.5721 1.0317 -2.1451 20.0729 0.1020 -2.0592 -5.6692 0.0000 0.0000 0.0000 20.7352 4.9926 -57.1510 -3.8265 -11.9259 35.4702 0.0261 3.8125 -1.2901 -0.3084 3.5705 -9.8712 -10.2479 -2.6990 12.1411 -4.4981 -5.4132 -0.0378 1.8818 -2.4189 -6.3802 -5.2476 -2.5316 -18.8574 3.4694 -2.5519 8.4151 1.6875 -1.1508 5.6995 -0.0000 -0.0000 0.0000 -82.8182 5.6138 45.4058 144.9308 -44.8615 -105.1378 -0.0000 0.0000 -14.4879 16.9876 -10.5072 -3.1886 -7.1250 0.0000 -0.0000 -7.1148 19.0503 4.4371 -0.0000 -0.0000 0.0000 89.1917 -47.8995 28.9296 -97.2341 59.8013 -66.2607 0.0000 -0.0000 -19.8388 -30.3581 10.8673 -6.3015 7.1250 -0.0000 -0.0000 -2.2852 -17.4428 -1.4963
4.4191 16.0950 8.2035 23.2783 -34.4962 -1.1970 0.0000 0.0000 0.0000 -26.5414 -6.0361 7.0030 6.4105 14.8147 46.6080 0.9524 -1.0247 18.8366 0.0845 -1.8748 -5.1599 0.0000 0.0000 0.0000 20.3116 4.7292 -56.2361 -4.0944 -12.2850 36.7477 0.0185 3.5713 -1.5031 -0.0049 0.4503 -1.2372 -10.3096 -2.6497 12.1001 -4.4165 -5.3331 0.0643 1.9834 -2.3860 -6.2408 -5.4419 -2.5748 -18.6126 3.2313 -2.5406 8.2040 1.6450 -1.1722 5.5917 0.0000 -0.0000 0.0000 -83.3893 6.6757 46.4208 142.5836 -46.4625 -103.4588 -0.0000 0.0000 -13.5178 17.3153 -10.6075 -3.2845 -7.1250 0.0000 -0.0000 -6.8829 18.9249 4.3097 0.0000 -0.0000 0.0000 89.5996 -47.0001 28.4904 -97.3660 59.7940 -66.3748 0.0000 -0.0000 -19.6308 -30.3323 10.7991 -6.2563 7.1250 -0.0000 -0.0000 -2.2736 -17.5240 -1.4847
4.1614 16.0399 8.6898 23.2273 -34.4975 -1.7129 0.0000 0.0000 0.0000 -25.9476 -5.2938 5.4619 7.5709 15.7944 51.0019 0.8563 -0.0221 17.5020 0.0752 -1.7689 -4.8675 0.0000 0.0000 0.0000 20.2637 4.6250 -55.1802 -4.4846 -12.7787 38.5457 -0.0055 2.9964 -2.3905 -0.1810 -2.7401 7.5561 -10.1754 -2.5471 12.2228 -4.1984 -5.1687 0.1415 2.1213 -2.3073 -6.2325 -5.6371 -2.6224 -18.3189 2.9749 -2.5383 7.9929 1.5965 -1.1989 5.4765 0.0000 0.0000 0.0000 -84.0804 7.8134 47.2205 139.8241 -48.1737 -101.4298 -0.0000 0.0000 -12.7952 17.6918 -10.6766 -3.3820 -7.1250 0.0000 -0.0000 -6.6170 18.8276 4.1552 0.0000 0.0000 0.0000 89.8806 -45.8779 28.1472 -97.2505 59.8004 -66.2749 0.0000 -0.0000 -19.4693 -30.2442 10.6909 -6.1732 7.1250 -0.0000 -0.0000 -2.2220 -17.6582 -1.4444
3.8953 16.0043 9.1643 22.6512 -34.6626 -2.0131 0.0000 0.0000 0.0000 -24.7583 -4.5115 3.7000 8.8542 16.7130 55.5845 0.7591 0.6923 16.2436 0.0670 -1.6697 -4.5937 0.0000 0.0000 0.0000 20.7515 4.6836 -53.8237 -4.9467 -13.3235 40.5919 -0.0496 2.0824 -3.9983 -0.7187 -5.4175 15.1034 -9.7459 -2.3892 12.5118 -3.8313 -4.8991 0.2072 2.2492 -2.1762 -6.3509 -5.7905 -2.6647 -18.0137 2.6912 -2.5394 7.8024 1.5327 -1.2272 5.3657 -0.0000 -0.0000 0.0000 -84.8628 8.9963 47.7612 136.6471 -49.9356 -99.0296 -0.0000 0.0000 -12.3364 18.0937 -10.7189 -3.4775 -7.1250 0.0000 -0.0000 -6.3332 18.7555 3.9850 -0.0000 -0.0000 0.0000 90.0383 -44.5009 27.9300 -96.7719 59.8260 -65.8612 0.0000 -0.0000 -19.4036 -30.1289 10.5534 -6.0674 7.1250 -0.0000 -0.0000 -2.1539 -17.8288 -1.3920
3.6361 15.9492 9.6285 21.5139 -35.0141 -2.0616 0.0000 0.0000 0.0000 -22.9704 -3.7229 1.7173 10.2710 17.5595 60.3905 0.6556 1.0098 14.9846 0.0592 -1.5702 -4.3192 0.0000 0.0000 0.0000 21.7868 4.9573 -52.3109 -5.4630 -13.8869 42.7863 -0.1156 0.8033 -6.1868 -1.3124 -7.2563 20.4771 -8.9932 -2.1851 12.9726 -3.3182 -4.5276 0.2568 2.3448 -1.9957 -6.6044 -5.8776 -2.6918 -17.7138 2.3836 -2.5355 7.6430 1.4517 -1.2519 5.2643 -0.0000 -0.0000 0.0000 -85.7058 10.2173 48.0150 133.0473 -51.6900 -96.2387 -0.0000 0.0000 -12.1396 18.5182 -10.7384 -3.5712 -7.1250 0.0000 -0.0000 -6.0337 18.7049 3.8011 -0.0000 -0.0000 0.0000 90.0591 -42.8686 27.8817 -95.8467 59.8704 -65.0612 0.0000 -0.0000 -19.4588 -30.0253 10.3894 -5.9501 7.1250 -0.0000 -0.0000 -2.0959 -18.0281 -1.3453
3.3760 15.8959 10.0811 19.9157 -35.5142 -1.8745 0.0000 0.0000 0.0000 -20.6821 -2.9740 -0.4485 11.7657 18.2899 65.2443 0.5520 0.9341 13.7446 0.0560 -1.5275 -4.2016 0.0000 0.0000 0.0000 23.2913 5.3524 -50.5666 -5.9849 -14.4137 44.9211 -0.2068 -0.6941 -8.8714 -1.7229 -8.2634 23.5172 -7.9836 -1.9608 13.5319 -2.7066 -4.0816 0.3212 2.3875 -1.7849 -6.9116 -5.8690 -2.6982 -17.4664 2.0656 -2.5235 7.5019 1.3529 -1.2695 5.1756 -0.0000 0.0000 0.0000 -86.5545 11.4133 47.9602 129.0230 -53.3820 -93.0436 -0.0000 0.0000 -12.1700 18.9770 -10.7457 -3.6686 -7.1250 0.0000 -0.0000 -5.7098 18.6637 3.6002 -0.0000 0.0000 0.0000 89.9588 -40.9186 28.0348 -94.3700 59.9277 -63.7836 0.0000 -0.0000 -19.6046 -29.9783 10.1877 -5.8256 7.1250 -0.0000 -0.0000 -2.0806 -18.2638 -1.3246
3.1152 15.8447 10.5230 18.0827 -36.0847 -1.5025 0.0000 0.0000 0.0000 -18.1388 -2.3801 -2.8258 13.3079 18.8905 70.0792 0.4468 0.5576 12.4451 0.0558 -1.5240 -4.1920 0.0000 0.0000 0.0000 25.0191 5.8054 -48.6898 -6.4967 -14.8930 46.9441 -0.3279 -2.2591 -11.8843 -1.8513 -8.5492 24.3951 -6.8751 -1.7467 14.0978 -2.0734 -3.6173 0.3975 2.3851 -1.5716 -7.2111 -5.7557 -2.6789 -17.2969 1.7704 -2.4997 7.3846 1.2455 -1.2757 5.1055 -0.0000 0.0000 0.0000 -87.3501 12.5681 47.5963 124.6050 -54.9524 -89.4609 -0.0000 0.0000 -12.3748 19.4877 -10.7503 -3.7765 -7.1250 0.0000 -0.0000 -5.3494 18.6209 3.3760 -0.0000 0.0000 0.0000 89.7645 -38.6368 28.4170 -92.2979 59.9800 -61.9899 0.0000 -0.0000 -19.7762 -29.9833 9.9603 -5.6989 7.1250 -0.0000 -0.0000 -2.1036 -18.5231 -1.3272
2.8531 15.7967 10.9553 16.2281 -36.6561 -1.0446 0.0000 0.0000 0.0000 -15.5676 -2.0028 -5.3998 14.8415 19.3497 74.7587 0.3440 0.0123 11.0762 0.0534 -1.4917 -4.1028 0.0000 0.0000 0.0000 26.7673 6.2099 -46.7065 -6.9631 -15.3007 48.7345 -0.4807 -3.7499 -15.0093 -1.7524 -8.3300 23.7211 -5.8204 -1.5573 14.6170 -1.4801 -3.1793 0.4925 2.3635 -1.3755 -7.4555 -5.5474 -2.6341 -17.2146 1.5170 -2.4628 7.2883 1.1368 -1.2692 5.0548 -0.0000 0.0000 0.0000 -88.0503 13.6638 46.9546 119.8518 -56.3493 -85.5356 -0.0000 0.0000 -12.6642 20.0678 -10.7731 -3.9063 -7.1250 0.0000 -0.0000 -4.9403 18.5524 3.1233 -0.0000 0.0000 0.0000 89.5112 -36.0377 29.0197 -89.6668 59.9996 -59.7114 0.0000 -0.0000 -19.8530 -30.0321 9.7104 -5.5691 7.1250 -0.0000 -0.0000 -2.1593 -18.8035 -1.3490
2.5897 15.7525 11.3791 14.5504 -37.1260 -0.5539 0.0000 0.0000 0.0000 -13.1877 -1.9368 -8.2261 16.3245 19.6730 79.1969 0.2480 -0.5899 9.6398 0.0505 -1.4502 -3.9886 0.0000 0.0000 0.0000 28.3496 6.4580 -44.7589 -7.3754 -15.6400 50.2801 -0.6603 -4.9629 -17.9512 -1.5187 -7.7820 22.0538 -4.9403 -1.4178 15.0055 -0.9764 -2.8249 0.5860 2.3488 -1.2206 -7.6135 -5.2778 -2.5719 -17.2024 1.3347 -2.4202 7.2163 1.0409 -1.2527 5.0230 0.0000 -0.0000 0.0000 -88.6169 14.7076 46.0834 114.8713 -57.5285 -81.3604 -0.0000 0.0000 -12.8719 20.6481 -10.8146 -4.0444 -7.1250 0.0000 -0.0000 -4.5316 18.4628 2.8723 0.0000 -0.0000 0.0000 89.2468 -33.1929 29.8098 -86.6608 59.9578 -57.1086 0.0000 -0.0000 -19.7073 -30.1007 9.4452 -5.4342 7.1250 -0.0000 -0.0000 -2.2301 -19.0997 -1.3786
2.3256 15.7114 11.7967 13.1714 -37.4759 -0.1250 0.0000 0.0000 0.0000 -11.1417 -2.1698 -11.2880 17.7175 19.8746 83.3131 0.1633 -1.1444 8.1397 0.0452 -1.3728 -3.7753 0.0000 0.0000 0.0000 29.6591 6.4862 -42.8485 -7.7341 -15.9202 51.5992 -0.8703 -5.8395 -20.6770 -1.2820 -7.1751 20.2352 -4.2915 -1.3241 15.2510 -0.5908 -2.5675 0.6776 2.3493 -1.1107 -7.6791 -4.9770 -2.4995 -17.2402 1.2261 -2.3764 7.1741 0.9628 -1.2295 5.0092 0.0000 0.0000 0.0000 -89.0162 15.7195 45.0995 109.8373 -58.4596 -77.0908 -0.0000 0.0000 -12.9681 21.3447 -10.9032 -4.2274 -7.1250 0.0000 -0.0000 -4.0426 18.3119 2.5741 0.0000 0.0000 0.0000 89.0152 -30.2139 30.7499 -83.6101 59.8452 -54.4691 0.0000 -0.0000 -19.2685 -30.1512 9.1842 -5.2969 7.1250 -0.0000 -0.0000 -2.2877 -19.3935 -1.3994
2.0600 15.6750 12.2091 12.1240 -37.6619 0.2296 0.0000 0.0000 0.0000 -9.4693 -2.7084 -14.5972 18.9863 19.9753 87.0350 0.0938 -1.5961 6.6035 0.0383 -1.2627 -3.4719 0.0000 0.0000 0.0000 30.6437 6.2775 -41.0348 -8.0445 -16.1519 52.7228 -1.1001 -6.4744 -23.1485 -1.0462 -6.5044 18.2553 -3.8782 -1.2823 15.3416 -0.3161 -2.4198 0.7484 2.3804 -1.0499 -7.6673 -4.6909 -2.4279 -17.3007 1.1958 -2.3382 7.1726 0.9108 -1.2042 5.0134 -0.0000 -0.0000 0.0000 -89.2402 16.7324 44.0776 104.9916 -59.1335 -72.9453 -0.0000 0.0000 -12.7924 21.9949 -11.0147 -4.4130 -7.1250 0.0000 -0.0000 -3.5881 18.1377 2.2973 -0.0000 -0.0000 0.0000 88.8467 -27.2511 31.7922 -80.9294 59.6868 -52.1529 0.0000 -0.0000 -18.5776 -30.1391 8.9754 -5.1756 7.1250 -0.0000 -0.0000 -2.2963 -19.6340 -1.3923
1.7923 15.6439 12.6188 11.3617 -37.7024 0.4824 0.0000 0.0000 0.0000 -8.1454 -3.4881 -18.0593 20.0983 19.9998 90.2873 0.0409 -1.9280 5.0329 0.0307 -1.1312 -3.1100 0.0000 0.0000 0.0000 31.3387 5.8340 -39.2875 -8.3125 -16.3443 53.6805 -1.3476 -6.8786 -25.3894 -0.8001 -5.7089 15.9422 -3.6504 -1.2788 15.3171 -0.1263 -2.3577 0.8008 2.4393 -1.0267 -7.6016 -4.4449 -2.3679 -17.3711 1.2146 -2.3117 7.2270 0.8793 -1.1825 5.0382 0.0000 -0.0000 0.0000 -89.2863 17.7848 43.1221 100.6184 -59.5696 -69.1825 -0.0000 0.0000 -12.3126 22.5456 -11.1412 -4.5863 -7.1250 0.0000 -0.0000 -3.2054 17.9539 2.0645 0.0000 -0.0000 0.0000 88.7455 -24.4649 32.9008 -79.0692 59.5437 -50.5481 0.0000 -0.0000 -17.7788 -30.0333 8.8538 -5.0849 7.1250 -0.0000 -0.0000 -2.2308 -19.7837 -1.3451
1.5233 15.6170 13.0261 10.7630 -37.6292 0.7033 0.0000 0.0000 0.0000 -7.0518 -4.4509 -21.6637 21.0390 19.9741 93.0391 0.0053 -2.1584 3.4585 0.0229 -0.9775 -2.6870 0.0000 0.0000 0.0000 31.8552 5.1941 -37.6076 -8.5382 -16.5012 54.4790 -1.5953 -7.1327 -27.3582 -0.5680 -4.8269 13.4156 -3.5142 -1.2981 15.2046 0.0235 -2.3422 0.8194 2.5146 -1.0235 -7.5184 -4.2685 -2.3303 -17.4298 1.2624 -2.3036 7.3397 0.8662 -1.1702 5.0813 -0.0000 0.0000 0.0000 -89.1591 18.9135 42.3474 96.9899 -59.8146 -66.0497 -0.0000 0.0000 -11.5896 22.9703 -11.2761 -4.7379 -7.1250 0.0000 -0.0000 -2.9125 17.7702 1.8871 -0.0000 0.0000 0.0000 88.6961 -22.0005 34.0454 -78.3900 59.4845 -49.9629 0.0000 -0.0000 -17.0412 -29.8591 8.8340 -5.0383 7.1250 -0.0000 -0.0000 -2.1083 -19.8235 -1.2692
